<mxfile host="app.diagrams.net" agent="Mozilla/5.0 (Windows NT 10.0; Win64; x64) AppleWebKit/537.36 (KHTML, like Gecko) Chrome/141.0.0.0 Safari/537.36" version="28.2.7" pages="2">
  <diagram name="第 1 页" id="ZO3rH8YjWERtdVbSypMz">
    <mxGraphModel dx="2040" dy="657" grid="1" gridSize="10" guides="1" tooltips="1" connect="1" arrows="1" fold="1" page="1" pageScale="1" pageWidth="827" pageHeight="1169" math="0" shadow="0">
      <root>
        <mxCell id="0" />
        <mxCell id="1" parent="0" />
        <mxCell id="nDctGN0-oycBQMKMwsl5-1" style="rounded=0;orthogonalLoop=1;jettySize=auto;html=1;exitX=1;exitY=0.5;exitDx=0;exitDy=0;entryX=0;entryY=0.5;entryDx=0;entryDy=0;edgeStyle=orthogonalEdgeStyle;endArrow=none;endFill=0;strokeColor=#3054E1;jumpStyle=none;curved=1;strokeWidth=2;" parent="1" source="pypmLrJN1XnfOf-GO7F7-2" target="pypmLrJN1XnfOf-GO7F7-4" edge="1">
          <mxGeometry relative="1" as="geometry" />
        </mxCell>
        <mxCell id="pypmLrJN1XnfOf-GO7F7-2" value="&lt;font style=&quot;color: rgb(255, 255, 255); font-size: 20px;&quot;&gt;&lt;b style=&quot;&quot;&gt;掌上后勤(h5)&lt;/b&gt;&lt;/font&gt;" style="rounded=1;whiteSpace=wrap;html=1;fillColor=#3659E4;" parent="1" vertex="1">
          <mxGeometry x="170" y="270" width="120" height="60" as="geometry" />
        </mxCell>
        <mxCell id="pypmLrJN1XnfOf-GO7F7-3" value="&lt;font color=&quot;#ffffff&quot;&gt;&lt;span style=&quot;font-size: 20px;&quot;&gt;&lt;b&gt;支付宝碰一碰&lt;/b&gt;&lt;/span&gt;&lt;/font&gt;" style="rounded=1;whiteSpace=wrap;html=1;fillColor=#3659E4;" parent="1" vertex="1">
          <mxGeometry x="170" y="410" width="130" height="60" as="geometry" />
        </mxCell>
        <mxCell id="pypmLrJN1XnfOf-GO7F7-4" value="&lt;font style=&quot;font-size: 14px;&quot;&gt;微信小程序&lt;/font&gt;" style="rounded=1;whiteSpace=wrap;html=1;fillColor=#EBEBEB;" parent="1" vertex="1">
          <mxGeometry x="400" y="280" width="120" height="40" as="geometry" />
        </mxCell>
        <mxCell id="pypmLrJN1XnfOf-GO7F7-5" value="&lt;span style=&quot;font-size: 14px;&quot;&gt;支付宝小程序&lt;/span&gt;" style="rounded=1;whiteSpace=wrap;html=1;fillColor=#EBEBEB;" parent="1" vertex="1">
          <mxGeometry x="400" y="420" width="120" height="40" as="geometry" />
        </mxCell>
        <mxCell id="nDctGN0-oycBQMKMwsl5-2" style="rounded=0;orthogonalLoop=1;jettySize=auto;html=1;exitX=1;exitY=0.5;exitDx=0;exitDy=0;entryX=0;entryY=0.5;entryDx=0;entryDy=0;edgeStyle=orthogonalEdgeStyle;endArrow=none;endFill=0;strokeColor=#3054E1;jumpStyle=none;curved=1;strokeWidth=2;" parent="1" source="pypmLrJN1XnfOf-GO7F7-2" target="pypmLrJN1XnfOf-GO7F7-5" edge="1">
          <mxGeometry relative="1" as="geometry">
            <mxPoint x="330" y="350" as="sourcePoint" />
            <mxPoint x="430" y="320" as="targetPoint" />
          </mxGeometry>
        </mxCell>
        <mxCell id="nDctGN0-oycBQMKMwsl5-3" style="rounded=0;orthogonalLoop=1;jettySize=auto;html=1;exitX=1;exitY=0.5;exitDx=0;exitDy=0;entryX=0;entryY=0.5;entryDx=0;entryDy=0;edgeStyle=orthogonalEdgeStyle;endArrow=none;endFill=0;strokeColor=#3054E1;jumpStyle=none;curved=1;strokeWidth=2;" parent="1" source="pypmLrJN1XnfOf-GO7F7-3" target="pypmLrJN1XnfOf-GO7F7-5" edge="1">
          <mxGeometry relative="1" as="geometry">
            <mxPoint x="350" y="420" as="sourcePoint" />
            <mxPoint x="450" y="500" as="targetPoint" />
          </mxGeometry>
        </mxCell>
        <mxCell id="nDctGN0-oycBQMKMwsl5-4" value="&lt;div style=&quot;&quot;&gt;&lt;span style=&quot;font-size: 14px; background-color: transparent; color: light-dark(rgb(0, 0, 0), rgb(255, 255, 255));&quot;&gt;生日面预定&lt;/span&gt;&lt;/div&gt;&lt;div style=&quot;&quot;&gt;&lt;span style=&quot;font-size: 14px;&quot;&gt;餐厅问题反馈&lt;/span&gt;&lt;/div&gt;" style="rounded=1;whiteSpace=wrap;html=1;fillColor=#EBEBEB;align=center;" parent="1" vertex="1">
          <mxGeometry x="690" y="410" width="120" height="100" as="geometry" />
        </mxCell>
        <mxCell id="nDctGN0-oycBQMKMwsl5-5" value="&lt;font color=&quot;#ffffff&quot;&gt;&lt;span style=&quot;font-size: 20px;&quot;&gt;&lt;b&gt;主题&lt;/b&gt;&lt;/span&gt;&lt;/font&gt;" style="rounded=1;whiteSpace=wrap;html=1;fillColor=#3659E4;" parent="1" vertex="1">
          <mxGeometry x="-90" y="380" width="120" height="60" as="geometry" />
        </mxCell>
        <mxCell id="nDctGN0-oycBQMKMwsl5-6" style="rounded=0;orthogonalLoop=1;jettySize=auto;html=1;edgeStyle=orthogonalEdgeStyle;endArrow=none;endFill=0;strokeColor=#3054E1;jumpStyle=none;curved=1;strokeWidth=2;entryX=0;entryY=0.5;entryDx=0;entryDy=0;exitX=1;exitY=0.5;exitDx=0;exitDy=0;" parent="1" source="nDctGN0-oycBQMKMwsl5-5" target="pypmLrJN1XnfOf-GO7F7-2" edge="1">
          <mxGeometry relative="1" as="geometry">
            <mxPoint x="50" y="370" as="sourcePoint" />
            <mxPoint x="330" y="360" as="targetPoint" />
          </mxGeometry>
        </mxCell>
        <mxCell id="nDctGN0-oycBQMKMwsl5-7" style="rounded=0;orthogonalLoop=1;jettySize=auto;html=1;exitX=1;exitY=0.5;exitDx=0;exitDy=0;edgeStyle=orthogonalEdgeStyle;endArrow=none;endFill=0;strokeColor=#3054E1;jumpStyle=none;curved=1;strokeWidth=2;entryX=0;entryY=0.5;entryDx=0;entryDy=0;" parent="1" source="nDctGN0-oycBQMKMwsl5-5" target="pypmLrJN1XnfOf-GO7F7-3" edge="1">
          <mxGeometry relative="1" as="geometry">
            <mxPoint x="210" y="453" as="sourcePoint" />
            <mxPoint x="309" y="400" as="targetPoint" />
          </mxGeometry>
        </mxCell>
        <mxCell id="nDctGN0-oycBQMKMwsl5-8" value="&lt;font color=&quot;#ffffff&quot;&gt;&lt;span style=&quot;font-size: 20px;&quot;&gt;&lt;b&gt;微信公众号&lt;/b&gt;&lt;/span&gt;&lt;/font&gt;" style="rounded=1;whiteSpace=wrap;html=1;fillColor=#3659E4;" parent="1" vertex="1">
          <mxGeometry x="170" y="550" width="130" height="60" as="geometry" />
        </mxCell>
        <mxCell id="nDctGN0-oycBQMKMwsl5-9" style="rounded=0;orthogonalLoop=1;jettySize=auto;html=1;exitX=1;exitY=0.5;exitDx=0;exitDy=0;edgeStyle=orthogonalEdgeStyle;endArrow=none;endFill=0;strokeColor=#3054E1;jumpStyle=none;curved=1;strokeWidth=2;entryX=0;entryY=0.5;entryDx=0;entryDy=0;" parent="1" source="nDctGN0-oycBQMKMwsl5-5" target="nDctGN0-oycBQMKMwsl5-8" edge="1">
          <mxGeometry relative="1" as="geometry">
            <mxPoint x="150" y="460" as="sourcePoint" />
            <mxPoint x="270" y="530" as="targetPoint" />
          </mxGeometry>
        </mxCell>
        <mxCell id="nDctGN0-oycBQMKMwsl5-10" style="rounded=0;orthogonalLoop=1;jettySize=auto;html=1;exitX=1;exitY=0.5;exitDx=0;exitDy=0;entryX=0;entryY=0.5;entryDx=0;entryDy=0;edgeStyle=orthogonalEdgeStyle;endArrow=none;endFill=0;strokeColor=#3054E1;jumpStyle=none;curved=1;strokeWidth=2;" parent="1" source="pypmLrJN1XnfOf-GO7F7-4" target="nDctGN0-oycBQMKMwsl5-4" edge="1">
          <mxGeometry relative="1" as="geometry">
            <mxPoint x="630" y="370" as="sourcePoint" />
            <mxPoint x="740" y="320" as="targetPoint" />
          </mxGeometry>
        </mxCell>
        <mxCell id="nDctGN0-oycBQMKMwsl5-11" style="rounded=0;orthogonalLoop=1;jettySize=auto;html=1;exitX=1;exitY=0.5;exitDx=0;exitDy=0;entryX=0;entryY=0.5;entryDx=0;entryDy=0;edgeStyle=orthogonalEdgeStyle;endArrow=none;endFill=0;strokeColor=#3054E1;jumpStyle=none;curved=1;strokeWidth=2;" parent="1" source="pypmLrJN1XnfOf-GO7F7-5" target="nDctGN0-oycBQMKMwsl5-4" edge="1">
          <mxGeometry relative="1" as="geometry">
            <mxPoint x="560" y="410" as="sourcePoint" />
            <mxPoint x="747" y="560" as="targetPoint" />
          </mxGeometry>
        </mxCell>
        <mxCell id="nDctGN0-oycBQMKMwsl5-12" style="rounded=0;orthogonalLoop=1;jettySize=auto;html=1;entryX=0;entryY=0.5;entryDx=0;entryDy=0;edgeStyle=orthogonalEdgeStyle;endArrow=none;endFill=0;strokeColor=#3054E1;jumpStyle=none;curved=1;strokeWidth=2;" parent="1" source="nDctGN0-oycBQMKMwsl5-8" target="nDctGN0-oycBQMKMwsl5-4" edge="1">
          <mxGeometry relative="1" as="geometry">
            <mxPoint x="420" y="610" as="sourcePoint" />
            <mxPoint x="520" y="540" as="targetPoint" />
          </mxGeometry>
        </mxCell>
      </root>
    </mxGraphModel>
  </diagram>
  <diagram id="VbSQ5UtO5Gq2X1h3BU8P" name="第 2 页">
    <mxGraphModel dx="1213" dy="657" grid="1" gridSize="10" guides="1" tooltips="1" connect="1" arrows="1" fold="1" page="1" pageScale="1" pageWidth="827" pageHeight="1169" math="0" shadow="0">
      <root>
        <mxCell id="0" />
        <mxCell id="1" parent="0" />
        <mxCell id="vRhz_uA84JF1N8fxo4zS-1" style="rounded=0;orthogonalLoop=1;jettySize=auto;html=1;exitX=1;exitY=0.5;exitDx=0;exitDy=0;entryX=0;entryY=0.5;entryDx=0;entryDy=0;edgeStyle=orthogonalEdgeStyle;endArrow=none;endFill=0;strokeColor=#3054E1;jumpStyle=none;curved=1;strokeWidth=2;" parent="1" source="vRhz_uA84JF1N8fxo4zS-2" target="vRhz_uA84JF1N8fxo4zS-4" edge="1">
          <mxGeometry relative="1" as="geometry" />
        </mxCell>
        <mxCell id="vRhz_uA84JF1N8fxo4zS-2" value="&lt;font color=&quot;#ffffff&quot;&gt;&lt;span style=&quot;font-size: 20px;&quot;&gt;&lt;b&gt;h5页面&lt;/b&gt;&lt;/span&gt;&lt;/font&gt;" style="rounded=1;whiteSpace=wrap;html=1;fillColor=#3659E4;" parent="1" vertex="1">
          <mxGeometry x="510" y="270" width="120" height="60" as="geometry" />
        </mxCell>
        <mxCell id="vRhz_uA84JF1N8fxo4zS-3" value="&lt;font color=&quot;#ffffff&quot;&gt;&lt;span style=&quot;font-size: 20px;&quot;&gt;&lt;b&gt;支付宝碰一碰/扫一扫&lt;/b&gt;&lt;/span&gt;&lt;/font&gt;" style="rounded=1;whiteSpace=wrap;html=1;fillColor=#3659E4;" parent="1" vertex="1">
          <mxGeometry x="460" y="405" width="190" height="70" as="geometry" />
        </mxCell>
        <mxCell id="vRhz_uA84JF1N8fxo4zS-4" value="&lt;font style=&quot;font-size: 14px;&quot;&gt;微信小程序&lt;/font&gt;" style="rounded=1;whiteSpace=wrap;html=1;fillColor=#EBEBEB;" parent="1" vertex="1">
          <mxGeometry x="740" y="280" width="120" height="40" as="geometry" />
        </mxCell>
        <mxCell id="vRhz_uA84JF1N8fxo4zS-5" value="&lt;span style=&quot;font-size: 14px;&quot;&gt;支付宝小程序&lt;/span&gt;" style="rounded=1;whiteSpace=wrap;html=1;fillColor=#EBEBEB;" parent="1" vertex="1">
          <mxGeometry x="740" y="420" width="120" height="40" as="geometry" />
        </mxCell>
        <mxCell id="vRhz_uA84JF1N8fxo4zS-6" style="rounded=0;orthogonalLoop=1;jettySize=auto;html=1;exitX=1;exitY=0.5;exitDx=0;exitDy=0;entryX=0;entryY=0.5;entryDx=0;entryDy=0;edgeStyle=orthogonalEdgeStyle;endArrow=none;endFill=0;strokeColor=#3054E1;jumpStyle=none;curved=1;strokeWidth=2;" parent="1" source="vRhz_uA84JF1N8fxo4zS-2" target="vRhz_uA84JF1N8fxo4zS-5" edge="1">
          <mxGeometry relative="1" as="geometry">
            <mxPoint x="670" y="350" as="sourcePoint" />
            <mxPoint x="770" y="320" as="targetPoint" />
          </mxGeometry>
        </mxCell>
        <mxCell id="vRhz_uA84JF1N8fxo4zS-7" style="rounded=0;orthogonalLoop=1;jettySize=auto;html=1;exitX=1;exitY=0.5;exitDx=0;exitDy=0;entryX=0;entryY=0.5;entryDx=0;entryDy=0;edgeStyle=orthogonalEdgeStyle;endArrow=none;endFill=0;strokeColor=#3054E1;jumpStyle=none;curved=1;strokeWidth=2;" parent="1" source="vRhz_uA84JF1N8fxo4zS-3" target="vRhz_uA84JF1N8fxo4zS-5" edge="1">
          <mxGeometry relative="1" as="geometry">
            <mxPoint x="690" y="420" as="sourcePoint" />
            <mxPoint x="790" y="500" as="targetPoint" />
          </mxGeometry>
        </mxCell>
        <mxCell id="vRhz_uA84JF1N8fxo4zS-9" value="&lt;font color=&quot;#ffffff&quot;&gt;&lt;span style=&quot;font-size: 20px;&quot;&gt;&lt;b&gt;掌上后勤&lt;/b&gt;&lt;/span&gt;&lt;/font&gt;" style="rounded=1;whiteSpace=wrap;html=1;fillColor=#3659E4;" parent="1" vertex="1">
          <mxGeometry x="150" y="380" width="120" height="60" as="geometry" />
        </mxCell>
        <mxCell id="vRhz_uA84JF1N8fxo4zS-10" style="rounded=0;orthogonalLoop=1;jettySize=auto;html=1;edgeStyle=orthogonalEdgeStyle;endArrow=none;endFill=0;strokeColor=#3054E1;jumpStyle=none;curved=1;strokeWidth=2;entryX=0;entryY=0.5;entryDx=0;entryDy=0;exitX=1;exitY=0.5;exitDx=0;exitDy=0;" parent="1" source="dNVaqa3dVQuI3M030Ilr-1" target="vRhz_uA84JF1N8fxo4zS-2" edge="1">
          <mxGeometry relative="1" as="geometry">
            <mxPoint x="390" y="370" as="sourcePoint" />
            <mxPoint x="670" y="360" as="targetPoint" />
          </mxGeometry>
        </mxCell>
        <mxCell id="vRhz_uA84JF1N8fxo4zS-11" style="rounded=0;orthogonalLoop=1;jettySize=auto;html=1;exitX=1;exitY=0.5;exitDx=0;exitDy=0;edgeStyle=orthogonalEdgeStyle;endArrow=none;endFill=0;strokeColor=#3054E1;jumpStyle=none;curved=1;strokeWidth=2;entryX=0;entryY=0.5;entryDx=0;entryDy=0;" parent="1" source="dNVaqa3dVQuI3M030Ilr-2" target="vRhz_uA84JF1N8fxo4zS-3" edge="1">
          <mxGeometry relative="1" as="geometry">
            <mxPoint x="550" y="453" as="sourcePoint" />
            <mxPoint x="649" y="400" as="targetPoint" />
          </mxGeometry>
        </mxCell>
        <mxCell id="vRhz_uA84JF1N8fxo4zS-12" value="&lt;font color=&quot;#ffffff&quot;&gt;&lt;span style=&quot;font-size: 20px;&quot;&gt;&lt;b&gt;微信公众号&lt;/b&gt;&lt;/span&gt;&lt;/font&gt;" style="rounded=1;whiteSpace=wrap;html=1;fillColor=#3659E4;" parent="1" vertex="1">
          <mxGeometry x="510" y="570" width="130" height="60" as="geometry" />
        </mxCell>
        <mxCell id="vRhz_uA84JF1N8fxo4zS-13" style="rounded=0;orthogonalLoop=1;jettySize=auto;html=1;exitX=1;exitY=0.5;exitDx=0;exitDy=0;edgeStyle=orthogonalEdgeStyle;endArrow=none;endFill=0;strokeColor=#3054E1;jumpStyle=none;curved=1;strokeWidth=2;entryX=0;entryY=0.5;entryDx=0;entryDy=0;" parent="1" source="dNVaqa3dVQuI3M030Ilr-3" target="vRhz_uA84JF1N8fxo4zS-12" edge="1">
          <mxGeometry relative="1" as="geometry">
            <mxPoint x="490" y="460" as="sourcePoint" />
            <mxPoint x="610" y="530" as="targetPoint" />
          </mxGeometry>
        </mxCell>
        <mxCell id="vRhz_uA84JF1N8fxo4zS-14" style="rounded=0;orthogonalLoop=1;jettySize=auto;html=1;exitX=1;exitY=0.5;exitDx=0;exitDy=0;entryX=0;entryY=0.5;entryDx=0;entryDy=0;endArrow=none;endFill=0;strokeColor=#3054E1;jumpStyle=none;strokeWidth=2;edgeStyle=orthogonalEdgeStyle;curved=1;" parent="1" source="vRhz_uA84JF1N8fxo4zS-4" target="wowLJBo5OBE5vU-065UZ-2" edge="1">
          <mxGeometry relative="1" as="geometry">
            <mxPoint x="970" y="370" as="sourcePoint" />
            <mxPoint x="1050.0000000000002" y="420" as="targetPoint" />
          </mxGeometry>
        </mxCell>
        <mxCell id="vRhz_uA84JF1N8fxo4zS-15" style="rounded=0;orthogonalLoop=1;jettySize=auto;html=1;exitX=1;exitY=0.5;exitDx=0;exitDy=0;endArrow=none;endFill=0;strokeColor=#3054E1;jumpStyle=none;strokeWidth=2;edgeStyle=orthogonalEdgeStyle;curved=1;entryX=0;entryY=0.5;entryDx=0;entryDy=0;" parent="1" source="vRhz_uA84JF1N8fxo4zS-5" target="wowLJBo5OBE5vU-065UZ-2" edge="1">
          <mxGeometry relative="1" as="geometry">
            <mxPoint x="900" y="410" as="sourcePoint" />
            <mxPoint x="1050" y="420" as="targetPoint" />
          </mxGeometry>
        </mxCell>
        <mxCell id="vRhz_uA84JF1N8fxo4zS-16" style="rounded=0;orthogonalLoop=1;jettySize=auto;html=1;endArrow=none;endFill=0;strokeColor=#3054E1;jumpStyle=none;strokeWidth=2;edgeStyle=orthogonalEdgeStyle;curved=1;entryX=0;entryY=0.5;entryDx=0;entryDy=0;" parent="1" source="vRhz_uA84JF1N8fxo4zS-12" target="wowLJBo5OBE5vU-065UZ-2" edge="1">
          <mxGeometry relative="1" as="geometry">
            <mxPoint x="760" y="610" as="sourcePoint" />
            <mxPoint x="1050" y="420" as="targetPoint" />
          </mxGeometry>
        </mxCell>
        <mxCell id="wowLJBo5OBE5vU-065UZ-2" value="&lt;font style=&quot;font-size: 14px;&quot;&gt;功能&lt;/font&gt;" style="rounded=0;whiteSpace=wrap;html=1;fillColor=#EBEBEB;" parent="1" vertex="1">
          <mxGeometry x="1010" y="415" width="110" height="50" as="geometry" />
        </mxCell>
        <mxCell id="wowLJBo5OBE5vU-065UZ-5" style="rounded=0;orthogonalLoop=1;jettySize=auto;html=1;exitX=1;exitY=0.5;exitDx=0;exitDy=0;endArrow=none;endFill=0;strokeColor=#3054E1;jumpStyle=none;strokeWidth=2;edgeStyle=orthogonalEdgeStyle;curved=1;entryX=0;entryY=0.5;entryDx=0;entryDy=0;" parent="1" source="wowLJBo5OBE5vU-065UZ-2" target="wowLJBo5OBE5vU-065UZ-7" edge="1">
          <mxGeometry relative="1" as="geometry">
            <mxPoint x="1200" y="430" as="sourcePoint" />
            <mxPoint x="1210" y="390" as="targetPoint" />
          </mxGeometry>
        </mxCell>
        <mxCell id="wowLJBo5OBE5vU-065UZ-6" style="rounded=0;orthogonalLoop=1;jettySize=auto;html=1;endArrow=none;endFill=0;strokeColor=#3054E1;jumpStyle=none;strokeWidth=2;edgeStyle=orthogonalEdgeStyle;curved=1;entryX=0;entryY=0.5;entryDx=0;entryDy=0;" parent="1" target="wowLJBo5OBE5vU-065UZ-8" edge="1">
          <mxGeometry relative="1" as="geometry">
            <mxPoint x="1120" y="440" as="sourcePoint" />
            <mxPoint x="1210" y="490" as="targetPoint" />
          </mxGeometry>
        </mxCell>
        <mxCell id="wowLJBo5OBE5vU-065UZ-7" value="&lt;span style=&quot;font-size: 14px;&quot;&gt;生日面预定&lt;/span&gt;" style="rounded=0;whiteSpace=wrap;html=1;" parent="1" vertex="1">
          <mxGeometry x="1220" y="360" width="100" height="40" as="geometry" />
        </mxCell>
        <mxCell id="wowLJBo5OBE5vU-065UZ-8" value="&lt;span style=&quot;font-size: 14px;&quot;&gt;餐厅问题反馈&lt;/span&gt;" style="rounded=0;whiteSpace=wrap;html=1;" parent="1" vertex="1">
          <mxGeometry x="1220" y="510" width="100" height="40" as="geometry" />
        </mxCell>
        <mxCell id="dNVaqa3dVQuI3M030Ilr-4" value="" style="rounded=0;orthogonalLoop=1;jettySize=auto;html=1;edgeStyle=orthogonalEdgeStyle;endArrow=none;endFill=0;strokeColor=#3054E1;jumpStyle=none;curved=1;strokeWidth=2;entryX=0;entryY=0.5;entryDx=0;entryDy=0;exitX=1;exitY=0.5;exitDx=0;exitDy=0;" edge="1" parent="1" source="vRhz_uA84JF1N8fxo4zS-9" target="dNVaqa3dVQuI3M030Ilr-1">
          <mxGeometry relative="1" as="geometry">
            <mxPoint x="320" y="445" as="sourcePoint" />
            <mxPoint x="510" y="300" as="targetPoint" />
          </mxGeometry>
        </mxCell>
        <mxCell id="dNVaqa3dVQuI3M030Ilr-1" value="&lt;font style=&quot;font-size: 16px;&quot;&gt;入口1&lt;/font&gt;" style="text;html=1;whiteSpace=wrap;strokeColor=none;fillColor=none;align=center;verticalAlign=middle;rounded=0;" vertex="1" parent="1">
          <mxGeometry x="370" y="330" width="60" height="30" as="geometry" />
        </mxCell>
        <mxCell id="dNVaqa3dVQuI3M030Ilr-5" value="" style="rounded=0;orthogonalLoop=1;jettySize=auto;html=1;exitX=1;exitY=0.5;exitDx=0;exitDy=0;edgeStyle=orthogonalEdgeStyle;endArrow=none;endFill=0;strokeColor=#3054E1;jumpStyle=none;curved=1;strokeWidth=2;entryX=0;entryY=0.5;entryDx=0;entryDy=0;" edge="1" parent="1" source="vRhz_uA84JF1N8fxo4zS-9" target="dNVaqa3dVQuI3M030Ilr-2">
          <mxGeometry relative="1" as="geometry">
            <mxPoint x="320" y="445" as="sourcePoint" />
            <mxPoint x="460" y="455" as="targetPoint" />
          </mxGeometry>
        </mxCell>
        <mxCell id="dNVaqa3dVQuI3M030Ilr-2" value="&lt;font style=&quot;font-size: 16px;&quot;&gt;入口2&lt;/font&gt;" style="text;html=1;whiteSpace=wrap;strokeColor=none;fillColor=none;align=center;verticalAlign=middle;rounded=0;" vertex="1" parent="1">
          <mxGeometry x="370" y="430" width="60" height="30" as="geometry" />
        </mxCell>
        <mxCell id="dNVaqa3dVQuI3M030Ilr-6" value="" style="rounded=0;orthogonalLoop=1;jettySize=auto;html=1;exitX=1;exitY=0.5;exitDx=0;exitDy=0;edgeStyle=orthogonalEdgeStyle;endArrow=none;endFill=0;strokeColor=#3054E1;jumpStyle=none;curved=1;strokeWidth=2;entryX=0;entryY=0.5;entryDx=0;entryDy=0;" edge="1" parent="1" source="vRhz_uA84JF1N8fxo4zS-9" target="dNVaqa3dVQuI3M030Ilr-3">
          <mxGeometry relative="1" as="geometry">
            <mxPoint x="320" y="445" as="sourcePoint" />
            <mxPoint x="490" y="590" as="targetPoint" />
          </mxGeometry>
        </mxCell>
        <mxCell id="dNVaqa3dVQuI3M030Ilr-3" value="&lt;font style=&quot;font-size: 16px;&quot;&gt;入口3&lt;/font&gt;" style="text;html=1;whiteSpace=wrap;strokeColor=none;fillColor=none;align=center;verticalAlign=middle;rounded=0;" vertex="1" parent="1">
          <mxGeometry x="370" y="530" width="60" height="30" as="geometry" />
        </mxCell>
        <mxCell id="dNVaqa3dVQuI3M030Ilr-7" style="edgeStyle=orthogonalEdgeStyle;rounded=0;orthogonalLoop=1;jettySize=auto;html=1;exitX=0.5;exitY=1;exitDx=0;exitDy=0;" edge="1" parent="1" source="dNVaqa3dVQuI3M030Ilr-1" target="dNVaqa3dVQuI3M030Ilr-1">
          <mxGeometry relative="1" as="geometry" />
        </mxCell>
        <mxCell id="dNVaqa3dVQuI3M030Ilr-8" value="&lt;font style=&quot;font-size: 22px;&quot;&gt;河北工业微校园&lt;/font&gt;" style="text;html=1;whiteSpace=wrap;strokeColor=none;fillColor=none;align=center;verticalAlign=middle;rounded=0;" vertex="1" parent="1">
          <mxGeometry x="640" y="150" width="220" height="30" as="geometry" />
        </mxCell>
      </root>
    </mxGraphModel>
  </diagram>
</mxfile>
